<svg width="160" height="64" viewBox="0 0 160 64" fill="none" xmlns="http://www.w3.org/2000/svg">
<path d="M71.1355 31.0798C71.1323 29.5834 71.1323 28.0862 71.1355 26.589C69.8485 26.5802 68.5648 26.5826 67.2778 26.5858C67.2746 24.9535 67.2714 23.3204 67.2842 21.6913C65.5831 21.7001 63.8789 21.6969 62.1787 21.6945V26.5826H60.062C60.0588 28.0806 60.062 29.5786 60.062 31.0798H62.1755V31.083H62.1787C62.1843 32.4499 62.1771 33.8184 62.1763 35.1861C62.1755 35.2996 62.1755 35.4131 62.1755 35.5266C62.1755 35.6122 62.1747 35.6985 62.1747 35.784H62.1755C62.1755 36.581 62.1779 37.378 62.1883 38.1749C62.2314 40.33 63.0156 42.6385 64.8301 43.9047C66.4273 45.047 68.4169 45.2604 70.3265 45.2349C68.7558 43.5986 67.8134 41.2077 67.4345 39.2876L67.4233 39.2317L67.4161 39.1749C67.3649 38.7537 67.301 38.0766 67.3082 37.362C67.2962 37.2093 67.2874 37.0574 67.281 36.9079C67.2754 36.5194 67.2754 36.131 67.2738 35.7433C67.2666 34.1885 67.2826 32.6354 67.2778 31.083C68.5616 31.0862 69.8485 31.0862 71.1355 31.0798Z" fill="white"/>
<path d="M59.1074 23.0952C59.0978 21.5948 59.0978 20.0952 59.1074 18.5948C56.5886 18.1719 53.6877 18.339 51.6693 20.08C49.8636 21.7027 49.5087 24.283 49.5734 26.586C49.5566 26.586 49.539 26.586 49.5223 26.586H47.3672C47.3696 28.0848 47.3696 29.5844 47.3672 31.084H49.2305C49.3488 31.0832 49.4671 31.0824 49.5854 31.0824V31.084H49.5958V33.542H49.5878C49.5918 37.2214 49.5934 40.9025 49.5854 44.5819H51.9563C52.8932 44.5819 53.8308 44.5827 54.7677 44.5795C54.7653 40.8449 54.7629 37.1111 54.7685 33.3781V31.0792H58.2249C58.2217 29.5788 58.2217 28.0808 58.2249 26.5828C58.2249 26.5828 54.834 26.5828 54.7429 26.5828C54.7892 25.5708 54.6725 24.3606 55.5055 23.6108C56.5087 22.7682 57.9067 23.0424 59.1074 23.0952Z" fill="white"/>
<path d="M40.3211 44.5822H42.6233C43.0589 44.5822 43.4946 44.5814 43.931 44.5822H45.3859C45.3547 40.7277 45.4162 36.8732 45.3547 33.0179C45.3147 30.7557 44.4562 28.2465 42.2995 27.185C39.2156 25.651 35.6017 25.9971 32.3115 26.5247C32.2996 28.1602 32.3084 29.7989 32.306 31.4384C34.4227 30.9787 36.7312 30.4999 38.8271 31.2841C39.8023 31.6198 40.1668 32.6478 40.3179 33.5766C38.8519 33.392 37.3643 33.0427 35.8855 33.3424C34.1325 33.5583 32.3955 34.4168 31.4043 35.9196C29.8056 38.3113 30.262 41.9284 32.6297 43.6574C34.8519 45.3512 38.0805 45.169 40.3395 43.6358C40.3363 43.8716 40.3275 44.3424 40.3211 44.5822ZM40.1077 40.6877C38.7959 41.0922 37.1948 41.5399 35.991 40.623C34.8919 39.8484 35.0342 37.9811 36.2252 37.3704C37.441 36.7285 38.8607 36.9531 40.1517 37.2097C40.2684 38.3672 40.2588 39.5335 40.1077 40.6877Z" fill="white"/>
<path d="M13.8305 20.1756C15.8953 20.1876 17.96 20.1788 20.0247 20.1788C17 24.2468 14.0431 28.3667 11 32.4194C13.7098 36.469 16.3765 40.5425 19.1079 44.5761C16.9664 44.5921 14.8241 44.5705 12.685 44.5889C10.2997 40.9686 7.90806 37.3515 5.53396 33.7248C5.52837 37.3451 5.52837 40.9654 5.53716 44.5857C3.69144 44.5761 1.84572 44.5825 0 44.5825C0.00639487 36.4498 0.00639487 28.3171 0 20.1844C1.84572 20.1756 3.68904 20.1844 5.53396 20.1756C5.53076 24.015 5.52517 27.8543 5.53716 31.6936C8.29015 27.8455 11.0711 24.0182 13.8305 20.1756Z" fill="white"/>
<path d="M20.3926 26.6414C22.1304 26.6326 23.8706 26.6414 25.6116 26.6326C25.6052 27.7805 25.6028 28.9284 25.5836 30.0738C26.4269 28.1722 28.2503 26.9348 30.2751 26.6078C30.2782 28.3113 30.2998 30.0179 30.2535 31.7213C28.0344 31.9867 25.7539 33.6414 25.6731 36.0363C25.6116 38.882 25.6612 41.7341 25.658 44.583C23.9018 44.583 22.1456 44.583 20.3926 44.579C20.3958 38.5982 20.3958 32.6198 20.3926 26.6414Z" fill="white"/>
<path d="M113.044 40.9363C112.316 41.2273 112.171 41.3728 111.298 41.6637C110.424 41.9555 109.405 41.9555 108.531 41.6637C105.765 40.4999 107.513 36.2777 107.513 36.2777C118.868 33.5119 117.266 27.3976 114.209 27.1058C112.316 27.1058 105.474 27.3976 102.271 35.2585C101.835 36.4231 98.7773 44.7213 105.62 45.3032C107.075 45.3032 108.677 45.1577 110.133 44.4303C111.443 43.7021 112.462 42.8284 113.335 41.6637C114.063 40.3536 113.044 40.9363 113.044 40.9363ZM111.443 29.2897C112.316 29.5806 110.133 33.9483 110.133 33.9483C109.259 34.2393 108.386 34.5311 107.804 34.5311C108.095 33.9483 109.696 28.4168 111.443 29.2897Z" fill="white"/>
<path d="M139.54 42.537C139.394 42.3915 139.103 42.3915 138.958 42.246C138.084 41.6633 138.812 40.0621 138.958 39.1884L141.578 29.8719C141.724 29.2892 142.743 26.2324 138.666 26.8144C135.172 27.3971 132.697 29.5802 132.697 29.5802C132.989 28.7073 133.28 27.3971 132.697 27.1053C131.97 26.8144 127.748 28.1245 126.729 28.9982C126.438 28.9982 126.001 29.4347 126.438 29.8719C126.874 30.4539 127.02 30.8903 126.729 31.9095C126.147 33.6569 124.4 39.7712 123.963 40.9358C123.526 42.1005 122.944 44.2844 123.963 45.0118C124.691 45.5945 127.748 44.2844 128.185 43.9926C128.621 43.8471 129.058 43.5561 129.203 43.4107C129.786 42.8279 128.912 42.537 129.786 39.4794C129.786 39.3339 130.805 36.2772 131.533 33.6569C132.115 31.473 134.153 30.4539 134.881 30.3084C136.046 30.1629 135.755 31.1821 135.609 31.9095C134.59 35.1125 133.426 39.9167 132.989 41.0813C132.552 42.246 131.824 44.5753 132.989 45.0118C134.007 45.74 138.666 43.7016 139.103 43.4107C139.976 42.8279 139.976 42.537 139.54 42.537Z" fill="white"/>
<path d="M121.778 42.537C121.487 42.3915 121.342 42.3915 121.196 42.246C120.323 41.6633 120.905 40.0622 121.196 39.1885L123.962 29.8719C124.108 28.8528 124.69 27.5426 123.962 27.1054C123.088 26.8144 118.866 28.1245 117.848 28.9982C117.702 28.9982 117.265 29.4347 117.702 29.8719C118.139 30.4539 118.139 30.8903 117.848 31.9095C117.411 33.6569 115.372 39.9167 114.936 41.0813C114.499 42.246 113.917 44.5753 115.227 45.0118C116.246 45.74 120.614 43.8471 121.196 43.4107C122.215 42.9734 122.215 42.537 121.778 42.537Z" fill="white"/>
<path d="M120.905 24.922C121.196 25.5039 123.816 24.3401 125.127 23.6118C125.273 23.4664 125.855 23.0291 126 22.5927C126.292 21.5735 126.437 21.137 126.583 20.4088C126.728 20.1178 126.728 19.6814 126.292 19.5351C125.709 19.3896 122.215 19.8269 121.342 21.2825C121.051 21.8644 120.031 24.631 120.905 24.922Z" fill="white"/>
<path d="M159.92 35.1132C159.484 33.5121 156.863 33.0748 155.845 33.9485C155.262 34.5304 154.971 35.6951 155.116 35.9869C157.591 35.2587 158.028 37.4425 157.591 38.3154C156.717 39.6264 156.426 40.0628 155.262 40.0628H147.546C147.401 39.9173 147.255 39.7718 147.546 39.4801C147.983 38.8981 155.553 28.5624 155.845 28.1252C155.99 27.8342 156.426 27.106 155.407 27.106H146.964C146.091 27.106 145.654 27.397 144.926 28.1252C144.343 28.8534 143.616 31.0365 143.179 32.4929C143.179 32.4929 143.179 33.0748 144.052 32.3474C144.198 32.2011 144.489 31.6192 144.926 31.6192H150.021C151.622 31.6192 143.179 39.6264 140.558 43.8478C140.122 44.576 140.849 44.576 141.287 44.576H152.351C155.116 44.576 154.68 45.0124 156.136 42.9741C156.136 42.9741 160.648 37.1515 159.92 35.1132Z" fill="white"/>
<path d="M99.068 40.0623L102.126 28.2702C104.163 21.1367 105.328 20.8457 106.056 20.1175H101.252C99.5053 20.1175 98.1943 22.5923 97.9033 24.1942L95.865 31.6187H91.4981C91.4981 31.6187 94.1184 22.1559 94.4093 21.1367C94.5548 20.7002 94.5548 20.1175 93.6819 20.1175C93.5356 20.1175 84.3646 19.8265 81.4525 20.8457C80.1424 21.2822 78.2503 22.4468 77.6676 24.1942C77.2311 25.2134 76.6484 27.1055 77.9593 30.5995C78.1048 31.036 78.3958 31.3277 78.5413 31.4732C78.9777 31.7642 82.7627 31.1822 82.6172 31.1822C82.909 31.1822 83.0545 31.036 82.7627 30.454C82.4717 29.7258 81.5988 28.4157 81.4525 27.1055C80.8706 22.0104 84.5101 21.2822 85.092 21.1367C85.9657 20.9912 86.6939 20.9912 87.5668 21.1367C87.8586 21.1367 88.586 21.2822 88.7315 21.5739C89.0233 22.1559 88.586 23.1751 88.2951 24.3397C88.0041 25.2134 85.5293 34.239 84.8011 36.7138C84.3646 38.6067 82.4717 42.6826 80.5796 43.2654C80.1424 43.4108 79.5605 43.4108 78.9777 43.2654C78.3958 43.1199 77.8131 42.8281 77.3766 42.5371C76.2119 41.3725 75.4837 39.0431 75.3382 37.2965C75.1928 35.1127 75.63 33.5116 75.1928 33.5116C74.4334 33.5116 71.8962 34.514 70.8674 35.2526C70.8658 35.2542 70.8642 35.2542 70.8626 35.2558C70.4454 35.5539 70.4182 35.6115 70.4182 35.6115C70.3974 35.6323 70.3806 35.6531 70.3694 35.6722C70.1008 36.1303 70.1192 37.7586 70.2431 38.7522C70.6804 40.936 71.845 43.4108 73.5916 44.5755C78.2503 47.7777 86.403 41.9552 87.2759 41.3725C88.586 40.2078 89.4597 38.6067 89.7507 37.442C90.1879 35.9864 90.9153 33.5116 90.9153 33.5116H95.283C95.283 33.5116 93.5356 40.0623 93.0992 41.6634C92.6627 42.9736 92.371 45.1574 93.5356 45.012C97.9033 45.012 99.6507 43.4108 99.7962 43.2654C99.9417 43.1199 99.9417 42.8281 99.7962 42.6826C99.5053 42.5371 98.4861 41.518 99.068 40.0623Z" fill="white"/>
</svg>
