<svg width="600" height="240" viewBox="0 0 600 240" fill="none" xmlns="http://www.w3.org/2000/svg">
<path d="M62.35 172.7H36.55C31.25 172.7 26.25 169.8 23.65 165.2L1.95 127.3C-0.65 122.7 -0.65 116.9 1.95 112.3L23.65 74.5C26.35 69.9 31.25 67 36.55 67H79.95C85.25 67 90.25 69.9 92.85 74.5L114.55 112.3C117.25 116.9 117.25 122.7 114.55 127.3L108.95 136.3C106.35 140.9 101.35 143.7 96.05 143.7H70.25L84.35 119.7L71.25 97H45.15L32.05 119.8L62.35 172.7Z" fill="white"/>
<path d="M158.649 120.002C163.249 120.002 166.249 118.602 166.249 113.702C166.249 108.902 163.749 107.602 159.349 107.602H155.949V120.002H158.649ZM155.949 144.902H143.949V98.1016H160.949C171.949 98.1016 178.549 103.202 178.549 113.002C178.549 123.902 170.649 129.402 159.449 129.402H155.949V144.902Z" fill="white"/>
<path d="M197.351 98.1016V128.202C197.351 133.502 200.051 135.002 203.851 135.002C207.451 135.002 210.051 132.902 210.051 128.502V98.1016H221.951V129.902C221.951 139.202 214.451 144.902 203.651 144.902C191.651 144.902 185.551 140.102 185.551 128.902V98.1016H197.351Z" fill="white"/>
<path d="M273.949 98.1016H304.649V108.702H286.049V115.802H302.049V126.302H286.049V134.402H305.149V144.902H273.949V98.1016Z" fill="white"/>
<path d="M316.15 136.001C318.35 137.501 323.35 140.001 328.95 140.001C333.65 140.001 338.85 138.501 338.85 131.301C338.85 125.701 333.85 123.801 328.25 122.301C321.45 120.501 314.75 117.901 314.75 109.301C314.75 101.501 320.85 96.3008 329.65 96.3008C336.05 96.3008 341.65 99.3008 344.95 102.601L341.85 106.301C338.15 103.101 334.05 101.101 329.65 101.101C325.65 101.101 320.55 102.801 320.55 108.701C320.55 114.301 325.35 115.901 331.45 117.701C337.95 119.701 344.65 122.201 344.65 131.101C344.65 139.901 338.75 144.801 328.75 144.801C321.95 144.801 315.65 142.101 313.75 140.501L316.15 136.001Z" fill="white"/>
<path d="M383.15 98.1016V102.902H369.25V144.902H363.85V102.902H350.25V98.1016H383.15Z" fill="white"/>
<path d="M406.15 140.201C416.15 140.201 419.25 130.501 419.25 121.001C419.25 112.701 416.55 101.201 406.05 101.201C395.95 101.201 392.25 111.001 392.25 120.601C392.25 129.801 394.75 140.201 406.15 140.201ZM405.55 144.901C393.75 144.901 386.65 136.801 386.65 120.701C386.65 102.601 396.85 96.3008 406.25 96.3008C416.15 96.3008 424.85 102.701 424.85 120.701C424.85 136.901 417.35 144.901 405.55 144.901Z" fill="white"/>
<path d="M483.45 126.002H499.25L491.25 103.102L483.45 126.002ZM471.65 144.902L488.15 98.1016H494.75L511.55 144.902H505.75L500.65 130.502H482.25L477.25 144.902H471.65Z" fill="white"/>
<path d="M547.75 140.601C543.95 143.201 538.55 144.901 532.65 144.901C520.65 144.901 513.25 137.101 513.25 120.701C513.25 102.401 523.55 96.3008 532.65 96.3008C537.35 96.3008 543.25 97.8008 547.95 103.901L544.05 107.101C541.05 103.401 537.45 101.101 532.65 101.101C524.05 101.101 518.85 108.401 518.85 120.201C518.85 132.901 523.25 140.301 533.15 140.301C536.75 140.301 540.75 139.001 542.45 137.801V123.901H532.05V119.101H547.85V140.601H547.75Z" fill="white"/>
<path d="M558.35 98.1016H583.85V102.902H563.75V118.702H581.05V123.402H563.75V140.102H584.35V144.902H558.35V98.1016Z" fill="white"/>
<path d="M446.249 123.202H439.149V102.702H445.349C453.449 102.702 459.149 103.602 459.149 112.902C459.149 120.402 453.849 123.202 446.249 123.202ZM459.649 130.202C458.549 127.802 457.849 126.702 456.349 125.902C461.549 123.602 464.849 119.002 464.849 112.002C464.849 102.802 458.849 98.1016 448.849 98.1016H433.449V144.902H439.049V127.602H447.149C447.749 127.602 448.249 127.602 448.849 127.502H448.749C451.649 127.502 453.049 129.402 454.249 131.902L460.249 144.702H466.249L459.649 130.202Z" fill="white"/>
<path d="M242.45 120.002V107.602H245.75C250.05 107.602 252.55 108.902 252.55 113.702C252.55 118.602 249.65 120.002 245.15 120.002H242.45ZM260.75 130.102C260.05 128.402 258.95 127.102 257.75 126.502C262.05 123.802 264.75 119.302 264.75 113.002C264.75 103.302 258.25 98.1016 247.45 98.1016H230.65V144.902H242.45V129.302H245.45C247.05 129.402 248.05 130.302 248.75 132.002L254.35 144.902H267.05L260.75 130.102Z" fill="white"/>
<path d="M593.95 102.101C594.75 102.101 595.55 102.001 595.55 101.001C595.55 100.201 594.75 100.101 594.05 100.101H592.65V102.101H593.95ZM592.65 105.901H591.55V99.2008H594.15C595.85 99.2008 596.65 99.8008 596.65 101.101C596.65 102.301 595.85 102.801 594.85 102.901L596.75 105.901H595.45L593.65 103.001H592.55V105.901H592.65ZM593.85 97.4008C591.15 97.4008 589.05 99.5008 589.05 102.401C589.05 105.201 590.85 107.401 593.85 107.401C596.45 107.401 598.55 105.401 598.55 102.401C598.65 99.5008 596.55 97.4008 593.85 97.4008ZM593.85 108.501C590.25 108.501 587.75 105.901 587.75 102.401C587.75 98.7008 590.55 96.3008 593.85 96.3008C597.05 96.3008 599.95 98.7008 599.95 102.401C599.95 106.101 597.15 108.501 593.85 108.501Z" fill="white"/>
</svg>
