<svg width="720" height="240" viewBox="0 0 720 240" fill="none" xmlns="http://www.w3.org/2000/svg">
<g clip-path="url(#clip0_5220_264)">
<path d="M228.781 156.264C230.27 153.02 230.402 151.669 230.402 143.068C226.55 143.683 221.355 144.438 214.991 145.794C204.044 148.174 202.176 152.279 202.176 156.396C202.176 161.127 205.913 165.115 213.254 165.115C220.083 165.115 225.937 162.364 228.781 156.264ZM242.307 172.505L232.023 172.553C232.023 172.553 231.131 168.388 230.848 163.874C227.857 166.962 222.314 173.38 211.139 173.38C199.694 173.38 191.195 166.583 191.195 156.643C191.195 153.515 192.069 150.41 193.805 147.8C197.18 142.817 203.43 138.837 220.959 137.464L230.27 136.717V135.228C230.27 129.128 230.27 118.923 217.142 118.923C208.873 118.923 206.076 122.927 205.1 126.548L196.005 122.745C196.154 122.43 196.319 122.1 196.487 121.786C199.993 115.323 206.835 111.335 216.775 111.335C222.217 111.335 229.276 112.704 233.892 116.314C240.438 121.287 240.305 131.08 240.305 131.08L240.686 161.273C240.686 161.273 241.053 170.035 242.307 172.505ZM570.85 156.264C572.337 153.02 572.458 151.669 572.458 143.068C568.619 143.683 563.411 144.438 557.045 145.794C546.112 148.174 544.248 152.279 544.248 156.396C544.248 161.127 547.986 165.115 555.31 165.115C562.157 165.115 567.997 162.364 570.85 156.264ZM584.362 172.505L574.075 172.553C574.075 172.553 573.186 168.388 572.903 163.874C569.926 166.962 564.391 173.38 553.194 173.38C541.753 173.38 533.267 166.583 533.267 156.643C533.267 153.515 534.142 150.41 535.877 147.8C539.252 142.817 545.485 138.837 563.012 137.464L572.337 136.717V135.228C572.337 129.128 572.337 118.923 559.192 118.923C550.945 118.923 548.114 122.927 547.173 126.548L538.077 122.745C538.204 122.43 538.372 122.1 538.554 121.786C542.049 115.323 548.908 111.335 558.829 111.335C564.29 111.335 571.349 112.704 575.961 116.314C582.506 121.287 582.347 131.08 582.347 131.08L582.754 161.273C582.754 161.273 583.09 170.035 584.362 172.505ZM472.078 161.223C468.703 166.962 462.205 173.525 449.378 173.525C431.996 173.525 422.008 161.718 422.008 141.906C422.008 119.798 436.594 111.335 449.011 111.335C459.824 111.335 470.166 117.306 473.647 132.092C474.76 137.065 474.76 141.545 474.76 144.027H432.46C432.217 153.864 436.346 166.316 450.248 166.088C455.928 165.984 459.925 163.405 462.475 159.373L472.078 161.223ZM432.723 136.933H463.941C463.068 121.539 454.188 118.923 448.269 118.923C439.819 118.923 433.828 125.125 432.723 136.933ZM359.732 161.223C356.357 166.962 349.861 173.525 337.046 173.525C319.65 173.525 309.645 161.718 309.645 141.906C309.645 119.798 324.248 111.335 336.665 111.335C347.461 111.335 357.82 117.306 361.305 132.092C362.409 137.065 362.409 141.545 362.409 144.027H320.132C319.863 153.864 324.001 166.316 337.907 166.088C343.578 165.984 347.576 163.405 350.13 159.373L359.732 161.223ZM320.374 136.933H351.596C350.725 121.539 341.843 118.923 335.923 118.923C327.473 118.923 321.487 125.125 320.374 136.933ZM521.609 158.247C519.538 162.284 515.655 165.937 508.013 165.937C501.365 165.937 490.215 161.754 490.215 142.339C490.215 137.115 491.157 118.61 507.399 118.61C515.606 118.61 519.38 123.076 521.124 126.931L530.387 123.062C524.685 113.564 514.396 111.352 507.036 111.352C488.285 111.352 479.222 126.437 479.222 143.085C479.222 157.487 487.079 173.525 507.894 173.525C519.952 173.525 526.672 167.705 530.343 161.899L521.609 158.247ZM368.099 113.6V172.505H377.984V139.098C377.984 134.733 377.984 130.267 382.354 125.92C385.477 122.815 389.232 121.455 393.595 121.455C398.972 121.455 404.476 123.936 406.212 129.525C406.843 131.508 406.843 133.244 406.843 139.216V172.505H416.698V137.595C416.698 132.617 416.698 129.025 415.691 125.54C412.834 115.831 403.853 112.076 396.339 112.076C392.854 112.076 383.481 112.955 377.984 122.568V113.6H368.099ZM249.304 95.0602V104.607H293.323L249.268 162.434V172.505H306.172V163.206H261.227L305.064 104.718V95.0602H249.304ZM160.799 113.6V172.505H170.672V145.418C170.672 140.37 170.539 134.384 173.172 130.117C176.375 124.896 181.14 122.913 190.828 122.843V112.642C186.844 112.775 176.277 113.022 170.672 124.132V113.6H160.799ZM141.172 95.043L130.982 99.2973V113.6H121.639V121.834H130.982V159.656C130.855 167.346 130.855 172.903 142.295 172.903C146.037 172.903 150.135 172.157 151.871 171.909V163.755C149.884 164.369 147.273 165.115 145.405 165.115C141.172 165.115 141.172 162.138 141.172 155.188V121.834H151.871V113.6H141.172V95.043ZM109.138 156.096C109.138 162.416 104.013 165.769 95.2678 165.769C88.2045 165.769 83.4615 163.786 80.833 159.222L70.3809 161.055C74.4441 169.379 82.9131 173.363 94.8356 173.363C111.024 173.363 119.476 164.4 119.476 154.859C119.476 142.588 108.165 139.265 95.1484 136.637C88.8678 135.377 81.4905 133.046 81.4905 127.475C81.4905 123.508 85.3605 118.923 93.1163 118.923C101.038 118.923 105.768 124.312 106.492 126.446L115.672 122.629C111.47 114.607 103.056 111.335 94.2375 111.335C80.6338 111.335 71.6043 118.052 71.6043 128.717C71.6043 140.85 82.0019 143.233 92.0746 145.418C100.741 147.283 109.138 149.417 109.138 156.096ZM57.5787 172.505H68.4468L40.2506 95.043H29.4986L-0.000488281 172.505H10.9643L19.6294 148.754H49.1467L57.5787 172.505ZM22.9166 140.078L34.7774 107.894L46.0733 140.078H22.9166Z" fill="white"/>
<path d="M694.859 72.5923C683.263 68.5587 654.578 57.8687 624.311 53.8834C613.908 52.5185 609.711 56.2163 614.01 66.1382C618.223 75.9257 629.186 92.3315 640.672 104.639C652.144 116.942 664.597 120.245 668.545 101.294C668.695 100.619 668.831 99.939 668.96 99.2799C669.919 94.3986 670.634 89.6777 670.992 85.5392C665.904 83.2284 660.196 80.7628 654.489 78.3556C654.807 82.7063 655.321 90.2122 655.584 95.9855C655.617 96.7319 655.653 97.4438 655.669 98.137C656.013 107.497 652.824 107.466 647.498 103.645C641.296 99.2101 622.314 74.1282 620.132 63.0501C620.034 62.3219 620.378 62.2992 620.755 62.4183C620.891 62.4702 621.038 62.5286 621.223 62.6033C621.255 62.6033 621.255 62.6033 621.271 62.6033C625.556 64.2852 639.824 69.9184 654.327 76.0272C660.113 78.4653 665.922 80.9695 671.144 83.3368C676.284 85.6606 680.866 87.8293 684.293 89.6631C690.559 93.0117 692.987 95.2949 690.359 97.9767C677.31 111.22 631.772 130.055 616.046 153.343C616.046 153.343 615.981 153.421 615.88 153.567C615.698 153.817 615.531 154.099 615.371 154.394C615.319 154.482 615.283 154.579 615.234 154.661C614.462 156.083 613.349 158.564 612.955 161.577C612.292 166.666 614.939 171.314 622.248 173.283C624.081 173.831 626.162 174.228 628.447 174.454C628.844 174.49 629.29 174.525 629.736 174.538C643.774 175.219 680.222 167.233 691.313 162.303C702.776 157.214 699.353 152.151 696.032 149.524C693.549 147.54 680.783 140.424 674.593 137.001C672.946 138.06 671.638 138.887 670.008 139.947C680.535 146.378 684.705 149.572 687.17 151.458C688.111 152.2 687.595 153.075 686.189 153.172C685.809 153.208 685.496 153.224 685.063 153.257C675.061 153.95 656.112 155.28 647.215 155.752C645.908 155.837 644.437 155.901 643.624 155.934C645.828 153.871 648.311 152.003 649.531 151.142C668.546 137.766 700.268 118.961 709.611 110.877C716.488 104.923 735.27 86.688 694.86 72.5803L694.859 72.5923ZM648.707 122.928C647.17 123.903 645.629 124.879 644.106 125.891C626.365 116.032 588.23 97.0272 584.921 95.3095C581.383 93.4767 575.212 90.9988 575.994 85.1268C577.09 76.8859 591.388 58.8448 597.457 51.433C628.807 13.0943 643.664 0.0240498 653.447 3.61227e-05C653.93 -0.00126191 654.398 0.032487 654.857 0.0908986C665.276 1.45578 671.059 12.2204 671.752 62.6409C665.948 60.847 659.52 58.9957 652.687 57.2872C652.132 49.9672 650.765 38.907 650.241 35.0895C649.66 30.7823 648.822 29.1438 647.086 28.9092C645.115 28.6561 640.318 33.2602 635.973 37.718C633.983 39.7371 628.397 45.3907 622.225 51.606C617.071 51.2701 613.629 52.3485 611.725 54.8576C610.211 56.8845 609.875 59.6545 610.786 63.1352C607.445 66.4662 604.583 69.3407 602.768 71.1531C595.902 77.9944 588.658 83.649 588.282 86.4284C587.983 88.6892 591.458 91.0439 596.398 93.9894C608.47 101.199 638.185 117.269 648.707 122.928Z" fill="white"/>
</g>
<defs>
<clipPath id="clip0_5220_264">
<rect width="720" height="240" fill="white"/>
</clipPath>
</defs>
</svg>
