<svg width="600" height="240" viewBox="0 0 600 240" fill="none" xmlns="http://www.w3.org/2000/svg">
<path d="M111.441 157.063L57.8486 131.262V74.5L111.441 157.063ZM115.698 166.927L57.8486 142.486V166.927H115.698Z" fill="white"/>
<path d="M4.24308 157.063L57.8491 74.5V131.257L4.24308 157.063ZM0 166.927H57.8491V142.486L0 166.927Z" fill="white"/>
<path d="M120.382 149.957C122.481 149.957 124.181 151.666 124.181 153.765C124.181 155.865 122.481 157.574 120.382 157.574C119.372 157.574 118.403 157.173 117.689 156.458C116.975 155.744 116.574 154.775 116.574 153.765C116.574 152.755 116.975 151.787 117.689 151.072C118.403 150.358 119.372 149.957 120.382 149.957ZM120.382 157.016C120.81 157.017 121.233 156.934 121.628 156.771C122.024 156.608 122.383 156.368 122.686 156.067C122.988 155.765 123.229 155.406 123.393 155.011C123.557 154.616 123.641 154.193 123.641 153.765C123.641 151.961 122.187 150.506 120.382 150.506C118.577 150.506 117.131 151.958 117.131 153.765C117.131 154.192 117.214 154.616 117.377 155.01C117.54 155.405 117.78 155.764 118.082 156.066C118.384 156.368 118.742 156.607 119.137 156.77C119.532 156.933 119.955 157.017 120.382 157.016ZM119.547 155.945H118.994V151.553H120.69C121.683 151.553 122.072 151.988 122.072 152.776C122.072 153.584 121.56 153.919 120.966 154.023L122.276 155.946H121.65L120.336 154.023H119.547V155.945ZM119.547 153.529H120.254C120.858 153.529 121.51 153.501 121.51 152.776C121.51 152.209 121.002 152.041 120.526 152.041H119.542V153.528H119.547V153.529Z" fill="white"/>
<path d="M160.835 157.062H186.849C213.58 157.062 229.533 143.22 229.533 120.235C229.533 97.2583 213.58 83.4262 186.849 83.4262H160.835V157.062ZM177.279 96.2111H186.836C204.191 96.2111 212.864 104.766 212.864 120.235C212.864 135.694 204.191 144.267 186.836 144.267H177.279V96.2111ZM285.401 125.14H316.675V112.355H285.401V96.2111H320.75V83.4262H268.949V157.062H321.903V144.267H285.401V125.14ZM415.604 144.267H383.899V83.4262H367.383V157.062H415.604V144.267ZM504.422 83.4262H438.331V96.2111H463.106V157.062H479.646V96.2111H504.422V83.4262ZM600 157.062H582.777L575.559 138.609H545.606L538.416 157.062H522.316L553.112 83.1129V83.1035H569.724L600 157.062ZM570.885 126.292L560.594 100.16L550.289 126.292H570.885Z" fill="white"/>
</svg>
