<svg width="360" height="240" viewBox="0 0 360 240" fill="none" xmlns="http://www.w3.org/2000/svg">
<path fill-rule="evenodd" clip-rule="evenodd" d="M204.355 118.407C204.355 114.293 210.134 111.308 218.995 111.308C229.102 111.308 238.597 114.893 244.506 119.934C245.604 120.869 247.282 120.576 247.999 119.322L255.212 104.979C255.77 104.01 255.51 102.786 254.621 102.115C245.709 95.4176 233.715 90.6074 218.802 90.6074C194.34 90.6074 180.669 104.283 180.669 119.884C180.669 156.31 235.946 143.704 235.946 159.72C235.946 164.102 230.939 167.813 220.346 167.813C209.819 167.813 197.381 163.662 190.151 157.921C189.073 157.065 187.484 157.354 186.758 158.529L178.568 172.229C177.993 173.156 178.182 174.368 179.021 175.073C188.889 183.364 203.776 188.258 219.192 188.258C245 188.258 259.448 175.547 259.448 158.407C259.435 121.7 204.355 133.039 204.355 118.407Z" fill="white"/>
<path fill-rule="evenodd" clip-rule="evenodd" d="M92.9073 56.3071H71.3894C70.5255 56.3071 69.8209 57.0075 69.8209 57.8756V103.293C62.612 95.4176 52.9413 90.62 42.0586 90.62C18.8297 90.62 0 112.478 0 139.439C0 166.4 18.8297 188.258 42.0544 188.258C52.9371 188.258 62.612 183.46 69.8168 175.584V184.379C69.8168 185.242 70.5171 185.947 71.3852 185.947H92.9031C93.767 185.947 94.4715 185.247 94.4715 184.379V57.8714C94.4715 57.0075 93.7712 56.3071 92.9073 56.3071ZM47.2211 167.755C34.7364 167.755 24.6212 155.073 24.6212 139.426C24.6212 123.78 34.7406 111.098 47.2211 111.098C59.647 111.098 69.7287 123.671 69.8168 139.217V139.632C69.7329 155.186 59.6512 167.755 47.2211 167.755Z" fill="white"/>
<path fill-rule="evenodd" clip-rule="evenodd" d="M322.97 90.6114C311.601 90.6114 302.857 95.388 297.115 103.184V57.8712C297.115 57.0073 296.415 56.3027 295.547 56.3027H274.029C273.165 56.3027 272.461 57.0031 272.461 57.8712V184.378C272.461 185.242 273.161 185.947 274.029 185.947H295.547C296.411 185.947 297.115 185.247 297.115 184.378V130.28C297.132 118.034 305.88 111.207 316.444 111.207C327.021 111.207 335.324 117.707 335.324 133.668L335.345 184.378C335.345 185.242 336.046 185.947 336.914 185.947H358.432C359.296 185.947 360 185.247 360 184.378V132.167C360.004 103.461 343.527 90.6114 322.97 90.6114Z" fill="white"/>
<path d="M122.431 66.5689C122.431 58.517 129.141 52 137 52C145.052 52 151.569 58.517 151.569 66.5689C151.569 74.6208 145.052 81.1378 137 81.1378C129.141 81.1378 122.431 74.6208 122.431 66.5689ZM164.888 162.273C155.041 167.994 144.481 169.503 137.209 169.516C129.938 169.503 119.374 167.998 109.531 162.273C107.916 161.372 107.057 162.949 107.392 164.324C110.735 178.059 122.766 188.245 137.121 188.329H137.298C151.653 188.245 163.684 178.063 167.027 164.324C167.362 162.944 166.502 161.368 164.888 162.273ZM159.063 127.587C151.288 132.104 142.951 133.295 137.209 133.303C131.468 133.295 123.127 132.104 115.356 127.587C114.081 126.874 113.402 128.12 113.666 129.206C116.304 140.051 125.803 148.094 137.138 148.157H137.277C148.612 148.09 158.111 140.051 160.749 129.206C161.017 128.12 160.338 126.874 159.063 127.587ZM152.86 98.0259C147.295 101.259 141.319 102.115 137.209 102.119C133.1 102.111 127.124 101.259 121.559 98.0259C120.644 97.5142 120.162 98.4075 120.351 99.1833C122.242 106.95 129.044 112.708 137.159 112.754H137.26C145.379 112.708 152.181 106.95 154.068 99.1833C154.257 98.4075 153.77 97.5184 152.86 98.0259Z" fill="white"/>
</svg>
